<?xml version="1.0" encoding="UTF-8" standalone="no"?>
<!DOCTYPE svg PUBLIC "-//W3C//DTD SVG 1.1//EN"
 "http://www.w3.org/Graphics/SVG/1.1/DTD/svg11.dtd">
<!-- Generated by graphviz version 12.2.1 (20241206.2353)
 -->
<!-- Title: dependency&#45;cruiser output Pages: 1 -->
<svg width="164pt" height="229pt"
 viewBox="0.00 0.00 164.00 229.25" xmlns="http://www.w3.org/2000/svg" xmlns:xlink="http://www.w3.org/1999/xlink">
<g id="graph0" class="graph" transform="scale(1 1) rotate(0) translate(4 225.25)">
<title>dependency&#45;cruiser output</title>
<polygon fill="white" stroke="none" points="-4,4 -4,-225.25 160,-225.25 160,4 -4,4"/>
<g id="clust1" class="cluster">
<title>cluster_src</title>
<path fill="#ffffff" stroke="black" stroke-width="2" d="M20,-8C20,-8 136,-8 136,-8 142,-8 148,-14 148,-20 148,-20 148,-201.25 148,-201.25 148,-207.25 142,-213.25 136,-213.25 136,-213.25 20,-213.25 20,-213.25 14,-213.25 8,-207.25 8,-201.25 8,-201.25 8,-20 8,-20 8,-14 14,-8 20,-8"/>
<text text-anchor="middle" x="78" y="-200.7" font-family="Helvetica,sans-Serif" font-weight="bold" font-size="9.00">src</text>
</g>
<!-- src/app -->
<g id="node1" class="node">
<title>src/app</title>
<g id="a_node1"><a xlink:href="src/app" xlink:title="app">
<polygon fill="#ffffcc" stroke="black" points="91,-187.5 38.97,-187.5 37,-185.53 37,-169.75 89.03,-169.75 91,-171.72 91,-187.5"/>
<polyline fill="none" stroke="black" points="89.03,-185.53 37,-185.53"/>
<polyline fill="none" stroke="black" points="89.03,-185.53 89.03,-169.75"/>
<polyline fill="none" stroke="black" points="89.03,-185.53 91,-187.5"/>
<text text-anchor="start" x="56.12" y="-174.95" font-family="Helvetica,sans-Serif" font-size="9.00">app</text>
</a>
</g>
</g>
<!-- src/shared/ -->
<g id="node2" class="node">
<title>src/shared/</title>
<g id="a_node2"><a xlink:href="src/shared/" xlink:title="shared">
<polygon fill="#ffffcc" stroke="black" points="86,-33.75 33.97,-33.75 32,-31.78 32,-16 84.03,-16 86,-17.97 86,-33.75"/>
<polyline fill="none" stroke="black" points="84.03,-31.78 32,-31.78"/>
<polyline fill="none" stroke="black" points="84.03,-31.78 84.03,-16"/>
<polyline fill="none" stroke="black" points="84.03,-31.78 86,-33.75"/>
<text text-anchor="start" x="44.75" y="-21.2" font-family="Helvetica,sans-Serif" font-size="9.00">shared</text>
</a>
</g>
</g>
<!-- src/app&#45;&gt;src/shared/ -->
<g id="edge1" class="edge">
<title>src/app&#45;&gt;src/shared/</title>
<path fill="none" stroke="#000000" stroke-opacity="0.200000" d="M51.65,-169.57C37.73,-159.4 17,-140.5 17,-118.12 17,-118.12 17,-118.12 17,-85.38 17,-66.4 31.43,-49.22 43.38,-38.26"/>
<polygon fill="#000000" fill-opacity="0.200000" stroke="#000000" stroke-opacity="0.200000" points="47.05,-35.03 44.78,-40.02 46.09,-35.88 43.29,-38.33 43.29,-38.33 43.29,-38.33 46.09,-35.88 41.81,-36.64 47.05,-35.03"/>
</g>
<!-- src/pages/ -->
<g id="node3" class="node">
<title>src/pages/</title>
<g id="a_node3"><a xlink:href="src/pages/" xlink:title="pages">
<polygon fill="#ffffcc" stroke="black" points="112,-156.75 59.97,-156.75 58,-154.78 58,-139 110.03,-139 112,-140.97 112,-156.75"/>
<polyline fill="none" stroke="black" points="110.03,-154.78 58,-154.78"/>
<polyline fill="none" stroke="black" points="110.03,-154.78 110.03,-139"/>
<polyline fill="none" stroke="black" points="110.03,-154.78 112,-156.75"/>
<text text-anchor="start" x="72.25" y="-144.2" font-family="Helvetica,sans-Serif" font-size="9.00">pages</text>
</a>
</g>
</g>
<!-- src/app&#45;&gt;src/pages/ -->
<g id="edge2" class="edge">
<title>src/app&#45;&gt;src/pages/</title>
<path fill="none" stroke="#000000" stroke-opacity="0.200000" d="M69.96,-169.46C71.63,-167.18 73.49,-164.63 75.32,-162.13"/>
<polygon fill="#000000" fill-opacity="0.200000" stroke="#000000" stroke-opacity="0.200000" points="78.23,-158.14 77.1,-163.51 77.48,-159.18 75.28,-162.18 75.28,-162.18 75.28,-162.18 77.48,-159.18 73.47,-160.85 78.23,-158.14"/>
</g>
<!-- src/pages/&#45;&gt;src/shared/ -->
<g id="edge7" class="edge">
<title>src/pages/&#45;&gt;src/shared/</title>
<path fill="none" stroke="#000000" stroke-opacity="0.200000" d="M108.79,-138.67C114.61,-135.57 120.25,-131.43 124,-126 144.12,-96.87 153.32,-75.01 132,-46.75 122.83,-34.59 107.08,-29.16 92.55,-26.85"/>
<polygon fill="#000000" fill-opacity="0.200000" stroke="#000000" stroke-opacity="0.200000" points="87.62,-26.2 92.87,-24.63 88.89,-26.37 92.58,-26.86 92.58,-26.86 92.58,-26.86 88.89,-26.37 92.29,-29.09 87.62,-26.2"/>
</g>
<!-- src/entities/ -->
<g id="node4" class="node">
<title>src/entities/</title>
<g id="a_node4"><a xlink:href="src/entities/" xlink:title="entities">
<polygon fill="#ffffcc" stroke="black" points="126,-64.5 73.97,-64.5 72,-62.53 72,-46.75 124.03,-46.75 126,-48.72 126,-64.5"/>
<polyline fill="none" stroke="black" points="124.03,-62.53 72,-62.53"/>
<polyline fill="none" stroke="black" points="124.03,-62.53 124.03,-46.75"/>
<polyline fill="none" stroke="black" points="124.03,-62.53 126,-64.5"/>
<text text-anchor="start" x="84.38" y="-51.95" font-family="Helvetica,sans-Serif" font-size="9.00">entities</text>
</a>
</g>
</g>
<!-- src/pages/&#45;&gt;src/entities/ -->
<g id="edge6" class="edge">
<title>src/pages/&#45;&gt;src/entities/</title>
<path fill="none" stroke="#000000" stroke-opacity="0.200000" d="M104.92,-138.67C110.1,-135.51 115.06,-131.34 118,-126 127.98,-107.88 117.09,-84.16 108.16,-69.68"/>
<polygon fill="#000000" fill-opacity="0.200000" stroke="#000000" stroke-opacity="0.200000" points="105.66,-65.81 110.26,-68.79 106.35,-66.89 108.37,-70.01 108.37,-70.01 108.37,-70.01 106.35,-66.89 106.48,-71.23 105.66,-65.81"/>
</g>
<!-- src/features/ -->
<g id="node5" class="node">
<title>src/features/</title>
<g id="a_node5"><a xlink:href="src/features/" xlink:title="features">
<polygon fill="#ffffcc" stroke="black" points="84,-95.25 31.97,-95.25 30,-93.28 30,-77.5 82.03,-77.5 84,-79.47 84,-95.25"/>
<polyline fill="none" stroke="black" points="82.03,-93.28 30,-93.28"/>
<polyline fill="none" stroke="black" points="82.03,-93.28 82.03,-77.5"/>
<polyline fill="none" stroke="black" points="82.03,-93.28 84,-95.25"/>
<text text-anchor="start" x="40.5" y="-82.7" font-family="Helvetica,sans-Serif" font-size="9.00">features</text>
</a>
</g>
</g>
<!-- src/pages/&#45;&gt;src/features/ -->
<g id="edge8" class="edge">
<title>src/pages/&#45;&gt;src/features/</title>
<path fill="none" stroke="#000000" stroke-opacity="0.200000" d="M65.08,-138.67C59.9,-135.51 54.94,-131.34 52,-126 47.84,-118.45 49.07,-108.84 51.34,-101.09"/>
<polygon fill="#000000" fill-opacity="0.200000" stroke="#000000" stroke-opacity="0.200000" points="52.82,-96.75 53.34,-102.21 52.41,-97.96 51.21,-101.48 51.21,-101.48 51.21,-101.48 52.41,-97.96 49.08,-100.76 52.82,-96.75"/>
</g>
<!-- src/widgets/ -->
<g id="node6" class="node">
<title>src/widgets/</title>
<g id="a_node6"><a xlink:href="src/widgets/" xlink:title="widgets">
<polygon fill="#ffffcc" stroke="black" points="112,-126 59.97,-126 58,-124.03 58,-108.25 110.03,-108.25 112,-110.22 112,-126"/>
<polyline fill="none" stroke="black" points="110.03,-124.03 58,-124.03"/>
<polyline fill="none" stroke="black" points="110.03,-124.03 110.03,-108.25"/>
<polyline fill="none" stroke="black" points="110.03,-124.03 112,-126"/>
<text text-anchor="start" x="69.25" y="-113.45" font-family="Helvetica,sans-Serif" font-size="9.00">widgets</text>
</a>
</g>
</g>
<!-- src/pages/&#45;&gt;src/widgets/ -->
<g id="edge9" class="edge">
<title>src/pages/&#45;&gt;src/widgets/</title>
<path fill="none" stroke="#000000" stroke-opacity="0.200000" d="M85,-138.71C85,-136.79 85,-134.68 85,-132.57"/>
<polygon fill="#000000" fill-opacity="0.200000" stroke="#000000" stroke-opacity="0.200000" points="85,-127.63 87.25,-132.63 85,-128.91 85,-132.63 85,-132.63 85,-132.63 85,-128.91 82.75,-132.63 85,-127.63"/>
</g>
<!-- src/entities/&#45;&gt;src/shared/ -->
<g id="edge3" class="edge">
<title>src/entities/&#45;&gt;src/shared/</title>
<path fill="none" stroke="#000000" stroke-opacity="0.200000" d="M87.64,-46.46C83.88,-43.76 79.6,-40.68 75.53,-37.75"/>
<polygon fill="#000000" fill-opacity="0.200000" stroke="#000000" stroke-opacity="0.200000" points="71.51,-34.87 76.89,-35.96 72.55,-35.62 75.57,-37.79 75.57,-37.79 75.57,-37.79 72.55,-35.62 74.26,-39.61 71.51,-34.87"/>
</g>
<!-- src/features/&#45;&gt;src/shared/ -->
<g id="edge4" class="edge">
<title>src/features/&#45;&gt;src/shared/</title>
<path fill="none" stroke="#000000" stroke-opacity="0.200000" d="M55.87,-77.07C54.97,-69.24 54.01,-57.18 55,-46.75 55.21,-44.49 55.56,-42.1 55.96,-39.79"/>
<polygon fill="#000000" fill-opacity="0.200000" stroke="#000000" stroke-opacity="0.200000" points="56.85,-35.15 58.11,-40.48 56.61,-36.41 55.9,-40.06 55.9,-40.06 55.9,-40.06 56.61,-36.41 53.69,-39.63 56.85,-35.15"/>
</g>
<!-- src/features/&#45;&gt;src/entities/ -->
<g id="edge5" class="edge">
<title>src/features/&#45;&gt;src/entities/</title>
<path fill="none" stroke="#000000" stroke-opacity="0.200000" d="M68.92,-77.21C72.97,-74.45 77.57,-71.3 81.93,-68.31"/>
<polygon fill="#000000" fill-opacity="0.200000" stroke="#000000" stroke-opacity="0.200000" points="85.9,-65.6 83.04,-70.28 84.84,-66.32 81.77,-68.42 81.77,-68.42 81.77,-68.42 84.84,-66.32 80.5,-66.56 85.9,-65.6"/>
</g>
<!-- src/widgets/&#45;&gt;src/shared/ -->
<g id="edge12" class="edge">
<title>src/widgets/&#45;&gt;src/shared/</title>
<path fill="none" stroke="#000000" stroke-opacity="0.200000" d="M88.92,-107.83C92.2,-99.56 95.54,-86.79 90,-77.5 83.79,-67.08 73.12,-74.32 66,-64.5 60.94,-57.51 59.17,-48 58.68,-40.16"/>
<polygon fill="#000000" fill-opacity="0.200000" stroke="#000000" stroke-opacity="0.200000" points="58.55,-35.28 60.93,-40.21 58.58,-36.56 58.68,-40.27 58.68,-40.27 58.68,-40.27 58.58,-36.56 56.43,-40.33 58.55,-35.28"/>
</g>
<!-- src/widgets/&#45;&gt;src/entities/ -->
<g id="edge10" class="edge">
<title>src/widgets/&#45;&gt;src/entities/</title>
<path fill="none" stroke="#000000" stroke-opacity="0.200000" d="M93.27,-107.94C96.32,-104.37 99.42,-99.92 101,-95.25 103.66,-87.4 103.29,-78.14 102.19,-70.66"/>
<polygon fill="#000000" fill-opacity="0.200000" stroke="#000000" stroke-opacity="0.200000" points="101.37,-66.05 104.47,-70.58 101.59,-67.32 102.25,-70.98 102.25,-70.98 102.25,-70.98 101.59,-67.32 100.04,-71.37 101.37,-66.05"/>
</g>
<!-- src/widgets/&#45;&gt;src/features/ -->
<g id="edge11" class="edge">
<title>src/widgets/&#45;&gt;src/features/</title>
<path fill="none" stroke="#000000" stroke-opacity="0.200000" d="M77.05,-107.96C74.59,-105.44 71.82,-102.59 69.14,-99.84"/>
<polygon fill="#000000" fill-opacity="0.200000" stroke="#000000" stroke-opacity="0.200000" points="65.92,-96.53 71.02,-98.54 66.81,-97.45 69.4,-100.11 69.4,-100.11 69.4,-100.11 66.81,-97.45 67.79,-101.68 65.92,-96.53"/>
</g>
</g>
</svg>
