<?xml version="1.0" encoding="UTF-8" standalone="no"?>
<!DOCTYPE svg PUBLIC "-//W3C//DTD SVG 1.1//EN"
 "http://www.w3.org/Graphics/SVG/1.1/DTD/svg11.dtd">
<!-- Generated by graphviz version 11.0.0 (20240428.1522)
 -->
<!-- Title: dependency&#45;cruiser output Pages: 1 -->
<svg width="725pt" height="280pt"
 viewBox="0.00 0.00 725.25 279.75" xmlns="http://www.w3.org/2000/svg" xmlns:xlink="http://www.w3.org/1999/xlink">
<g id="graph0" class="graph" transform="scale(1 1) rotate(0) translate(4 275.75)">
<title>dependency&#45;cruiser output</title>
<polygon fill="white" stroke="none" points="-4,4 -4,-275.75 721.25,-275.75 721.25,4 -4,4"/>
<g id="clust1" class="cluster">
<title>cluster_src</title>
<path fill="#ffffff" stroke="black" stroke-width="2" d="M21.25,-8C21.25,-8 697.25,-8 697.25,-8 703.25,-8 709.25,-14 709.25,-20 709.25,-20 709.25,-251.75 709.25,-251.75 709.25,-257.75 703.25,-263.75 697.25,-263.75 697.25,-263.75 21.25,-263.75 21.25,-263.75 15.25,-263.75 9.25,-257.75 9.25,-251.75 9.25,-251.75 9.25,-20 9.25,-20 9.25,-14 15.25,-8 21.25,-8"/>
<text text-anchor="middle" x="359.25" y="-251.2" font-family="Helvetica,sans-Serif" font-weight="bold" font-size="9.00">src</text>
</g>
<g id="clust2" class="cluster">
<title>cluster_src/entities</title>
<path fill="#ffffff" stroke="black" stroke-width="2" d="M178.25,-41.75C178.25,-41.75 422.25,-41.75 422.25,-41.75 428.25,-41.75 434.25,-47.75 434.25,-53.75 434.25,-53.75 434.25,-81.25 434.25,-81.25 434.25,-87.25 428.25,-93.25 422.25,-93.25 422.25,-93.25 178.25,-93.25 178.25,-93.25 172.25,-93.25 166.25,-87.25 166.25,-81.25 166.25,-81.25 166.25,-53.75 166.25,-53.75 166.25,-47.75 172.25,-41.75 178.25,-41.75"/>
<text text-anchor="middle" x="300.25" y="-80.7" font-family="Helvetica,sans-Serif" font-weight="bold" font-size="9.00">entities</text>
</g>
<g id="clust3" class="cluster">
<title>cluster_src/features</title>
<path fill="#ffffff" stroke="black" stroke-width="2" d="M263.25,-101.25C263.25,-101.25 507.25,-101.25 507.25,-101.25 513.25,-101.25 519.25,-107.25 519.25,-113.25 519.25,-113.25 519.25,-140.75 519.25,-140.75 519.25,-146.75 513.25,-152.75 507.25,-152.75 507.25,-152.75 263.25,-152.75 263.25,-152.75 257.25,-152.75 251.25,-146.75 251.25,-140.75 251.25,-140.75 251.25,-113.25 251.25,-113.25 251.25,-107.25 257.25,-101.25 263.25,-101.25"/>
<text text-anchor="middle" x="385.25" y="-140.2" font-family="Helvetica,sans-Serif" font-weight="bold" font-size="9.00">features</text>
</g>
<g id="clust4" class="cluster">
<title>cluster_src/pages</title>
<path fill="#ffffff" stroke="black" stroke-width="2" d="M39.25,-160.75C39.25,-160.75 615.25,-160.75 615.25,-160.75 621.25,-160.75 627.25,-166.75 627.25,-172.75 627.25,-172.75 627.25,-200.25 627.25,-200.25 627.25,-206.25 621.25,-212.25 615.25,-212.25 615.25,-212.25 39.25,-212.25 39.25,-212.25 33.25,-212.25 27.25,-206.25 27.25,-200.25 27.25,-200.25 27.25,-172.75 27.25,-172.75 27.25,-166.75 33.25,-160.75 39.25,-160.75"/>
<text text-anchor="middle" x="327.25" y="-199.7" font-family="Helvetica,sans-Serif" font-weight="bold" font-size="9.00">pages</text>
</g>
<g id="clust5" class="cluster">
<title>cluster_src/widgets</title>
<path fill="#ffffff" stroke="black" stroke-width="2" d="M539.25,-101.25C539.25,-101.25 689.25,-101.25 689.25,-101.25 695.25,-101.25 701.25,-107.25 701.25,-113.25 701.25,-113.25 701.25,-140.75 701.25,-140.75 701.25,-146.75 695.25,-152.75 689.25,-152.75 689.25,-152.75 539.25,-152.75 539.25,-152.75 533.25,-152.75 527.25,-146.75 527.25,-140.75 527.25,-140.75 527.25,-113.25 527.25,-113.25 527.25,-107.25 533.25,-101.25 539.25,-101.25"/>
<text text-anchor="middle" x="614.25" y="-140.2" font-family="Helvetica,sans-Serif" font-weight="bold" font-size="9.00">widgets</text>
</g>
<!-- src/app -->
<g id="node1" class="node">
<title>src/app</title>
<g id="a_node1"><a xlink:href="src/app" xlink:title="app">
<polygon fill="#ffffcc" stroke="black" points="322.25,-238 270.23,-238 268.25,-236.03 268.25,-220.25 320.28,-220.25 322.25,-222.22 322.25,-238"/>
<polyline fill="none" stroke="black" points="320.28,-236.03 268.25,-236.03"/>
<polyline fill="none" stroke="black" points="320.28,-236.03 320.28,-220.25"/>
<polyline fill="none" stroke="black" points="320.28,-236.03 322.25,-238"/>
<text text-anchor="start" x="287.38" y="-225.45" font-family="Helvetica,sans-Serif" font-size="9.00">app</text>
</a>
</g>
</g>
<!-- src/shared -->
<g id="node2" class="node">
<title>src/shared</title>
<g id="a_node2"><a xlink:href="src/shared" xlink:title="shared">
<polygon fill="#ffffcc" stroke="black" points="206.25,-33.75 154.23,-33.75 152.25,-31.78 152.25,-16 204.28,-16 206.25,-17.97 206.25,-33.75"/>
<polyline fill="none" stroke="black" points="204.28,-31.78 152.25,-31.78"/>
<polyline fill="none" stroke="black" points="204.28,-31.78 204.28,-16"/>
<polyline fill="none" stroke="black" points="204.28,-31.78 206.25,-33.75"/>
<text text-anchor="start" x="165" y="-21.2" font-family="Helvetica,sans-Serif" font-size="9.00">shared</text>
</a>
</g>
</g>
<!-- src/app&#45;&gt;src/shared -->
<g id="edge1" class="edge">
<title>src/app&#45;&gt;src/shared</title>
<path fill="none" stroke="#000000" stroke-width="2" stroke-opacity="0.200000" d="M267.81,-228.6C202.25,-229.44 40.7,-229.69 24.25,-212.25 3.59,-190.34 -18.45,-90.5 26.25,-41.75 34.01,-33.29 100.33,-29.04 143.07,-27.15"/>
<polygon fill="#000000" fill-opacity="0.200000" stroke="#000000" stroke-width="2" stroke-opacity="0.200000" points="143.13,-29.25 149.04,-26.9 142.96,-25.05 143.13,-29.25"/>
</g>
<!-- src/pages/article/ -->
<g id="node3" class="node">
<title>src/pages/article/</title>
<g id="a_node3"><a xlink:href="src/pages/article/" xlink:title="article">
<polygon fill="#ffffcc" stroke="black" points="619.25,-186.5 567.23,-186.5 565.25,-184.53 565.25,-168.75 617.28,-168.75 619.25,-170.72 619.25,-186.5"/>
<polyline fill="none" stroke="black" points="617.28,-184.53 565.25,-184.53"/>
<polyline fill="none" stroke="black" points="617.28,-184.53 617.28,-168.75"/>
<polyline fill="none" stroke="black" points="617.28,-184.53 619.25,-186.5"/>
<text text-anchor="start" x="579.88" y="-173.95" font-family="Helvetica,sans-Serif" font-size="9.00">article</text>
</a>
</g>
</g>
<!-- src/app&#45;&gt;src/pages/article/ -->
<g id="edge2" class="edge">
<title>src/app&#45;&gt;src/pages/article/</title>
<path fill="none" stroke="#000000" stroke-width="2" stroke-opacity="0.200000" d="M322.72,-227.59C385.98,-226.19 538.15,-221.86 559.25,-212.25 568,-208.27 575.67,-200.86 581.41,-194"/>
<polygon fill="#000000" fill-opacity="0.200000" stroke="#000000" stroke-width="2" stroke-opacity="0.200000" points="582.98,-195.4 584.99,-189.37 579.66,-192.84 582.98,-195.4"/>
</g>
<!-- src/pages/editor/ -->
<g id="node4" class="node">
<title>src/pages/editor/</title>
<g id="a_node4"><a xlink:href="src/pages/editor/" xlink:title="editor">
<polygon fill="#ffffcc" stroke="black" points="421.25,-186.5 369.23,-186.5 367.25,-184.53 367.25,-168.75 419.28,-168.75 421.25,-170.72 421.25,-186.5"/>
<polyline fill="none" stroke="black" points="419.28,-184.53 367.25,-184.53"/>
<polyline fill="none" stroke="black" points="419.28,-184.53 419.28,-168.75"/>
<polyline fill="none" stroke="black" points="419.28,-184.53 421.25,-186.5"/>
<text text-anchor="start" x="382.63" y="-173.95" font-family="Helvetica,sans-Serif" font-size="9.00">editor</text>
</a>
</g>
</g>
<!-- src/app&#45;&gt;src/pages/editor/ -->
<g id="edge3" class="edge">
<title>src/app&#45;&gt;src/pages/editor/</title>
<path fill="none" stroke="#000000" stroke-width="2" stroke-opacity="0.200000" d="M322.53,-225.06C334.94,-222.81 349.46,-218.93 361.25,-212.25 369.51,-207.57 377.06,-200.23 382.85,-193.59"/>
<polygon fill="#000000" fill-opacity="0.200000" stroke="#000000" stroke-width="2" stroke-opacity="0.200000" points="384.29,-195.15 386.47,-189.18 381.04,-192.48 384.29,-195.15"/>
</g>
<!-- src/pages/home/ -->
<g id="node5" class="node">
<title>src/pages/home/</title>
<g id="a_node5"><a xlink:href="src/pages/home/" xlink:title="home">
<polygon fill="#ffffcc" stroke="black" points="487.25,-186.5 435.23,-186.5 433.25,-184.53 433.25,-168.75 485.28,-168.75 487.25,-170.72 487.25,-186.5"/>
<polyline fill="none" stroke="black" points="485.28,-184.53 433.25,-184.53"/>
<polyline fill="none" stroke="black" points="485.28,-184.53 485.28,-168.75"/>
<polyline fill="none" stroke="black" points="485.28,-184.53 487.25,-186.5"/>
<text text-anchor="start" x="448.63" y="-173.95" font-family="Helvetica,sans-Serif" font-size="9.00">home</text>
</a>
</g>
</g>
<!-- src/app&#45;&gt;src/pages/home/ -->
<g id="edge4" class="edge">
<title>src/app&#45;&gt;src/pages/home/</title>
<path fill="none" stroke="#000000" stroke-width="2" stroke-opacity="0.200000" d="M322.52,-226.97C355.67,-225.19 409.39,-221.04 427.25,-212.25 435.88,-208.01 443.54,-200.58 449.3,-193.78"/>
<polygon fill="#000000" fill-opacity="0.200000" stroke="#000000" stroke-width="2" stroke-opacity="0.200000" points="450.84,-195.22 452.89,-189.21 447.53,-192.62 450.84,-195.22"/>
</g>
<!-- src/pages/layouts/ -->
<g id="node6" class="node">
<title>src/pages/layouts/</title>
<g id="a_node6"><a xlink:href="src/pages/layouts/" xlink:title="layouts">
<polygon fill="#ffffcc" stroke="black" points="157.25,-186.5 105.23,-186.5 103.25,-184.53 103.25,-168.75 155.28,-168.75 157.25,-170.72 157.25,-186.5"/>
<polyline fill="none" stroke="black" points="155.28,-184.53 103.25,-184.53"/>
<polyline fill="none" stroke="black" points="155.28,-184.53 155.28,-168.75"/>
<polyline fill="none" stroke="black" points="155.28,-184.53 157.25,-186.5"/>
<text text-anchor="start" x="115.63" y="-173.95" font-family="Helvetica,sans-Serif" font-size="9.00">layouts</text>
</a>
</g>
</g>
<!-- src/app&#45;&gt;src/pages/layouts/ -->
<g id="edge5" class="edge">
<title>src/app&#45;&gt;src/pages/layouts/</title>
<path fill="none" stroke="#000000" stroke-width="2" stroke-dasharray="5,2" stroke-opacity="0.200000" d="M267.99,-226.97C234.84,-225.19 181.12,-221.04 163.25,-212.25 154.63,-208.01 146.97,-200.58 141.21,-193.78"/>
<polygon fill="#000000" fill-opacity="0.200000" stroke="#000000" stroke-width="2" stroke-opacity="0.200000" points="142.97,-192.62 137.61,-189.21 139.67,-195.22 142.97,-192.62"/>
</g>
<!-- src/pages/login/ -->
<g id="node7" class="node">
<title>src/pages/login/</title>
<g id="a_node7"><a xlink:href="src/pages/login/" xlink:title="login">
<polygon fill="#ffffcc" stroke="black" points="223.25,-186.5 171.23,-186.5 169.25,-184.53 169.25,-168.75 221.28,-168.75 223.25,-170.72 223.25,-186.5"/>
<polyline fill="none" stroke="black" points="221.28,-184.53 169.25,-184.53"/>
<polyline fill="none" stroke="black" points="221.28,-184.53 221.28,-168.75"/>
<polyline fill="none" stroke="black" points="221.28,-184.53 223.25,-186.5"/>
<text text-anchor="start" x="186.13" y="-173.95" font-family="Helvetica,sans-Serif" font-size="9.00">login</text>
</a>
</g>
</g>
<!-- src/app&#45;&gt;src/pages/login/ -->
<g id="edge6" class="edge">
<title>src/app&#45;&gt;src/pages/login/</title>
<path fill="none" stroke="#000000" stroke-width="2" stroke-opacity="0.200000" d="M267.98,-225.06C255.56,-222.81 241.05,-218.93 229.25,-212.25 221,-207.57 213.44,-200.23 207.66,-193.59"/>
<polygon fill="#000000" fill-opacity="0.200000" stroke="#000000" stroke-width="2" stroke-opacity="0.200000" points="209.46,-192.48 204.03,-189.18 206.21,-195.15 209.46,-192.48"/>
</g>
<!-- src/pages/page&#45;404/ -->
<g id="node8" class="node">
<title>src/pages/page&#45;404/</title>
<g id="a_node8"><a xlink:href="src/pages/page-404/" xlink:title="page&#45;404">
<polygon fill="#ffffcc" stroke="black" points="91.13,-186.5 37.35,-186.5 35.38,-184.53 35.38,-168.75 89.16,-168.75 91.13,-170.72 91.13,-186.5"/>
<polyline fill="none" stroke="black" points="89.16,-184.53 35.38,-184.53"/>
<polyline fill="none" stroke="black" points="89.16,-184.53 89.16,-168.75"/>
<polyline fill="none" stroke="black" points="89.16,-184.53 91.13,-186.5"/>
<text text-anchor="start" x="43.38" y="-173.95" font-family="Helvetica,sans-Serif" font-size="9.00">page&#45;404</text>
</a>
</g>
</g>
<!-- src/app&#45;&gt;src/pages/page&#45;404/ -->
<g id="edge7" class="edge">
<title>src/app&#45;&gt;src/pages/page&#45;404/</title>
<path fill="none" stroke="#000000" stroke-width="2" stroke-opacity="0.200000" d="M268.13,-228.22C221.18,-228.02 126.95,-225.87 97.25,-212.25 88.39,-208.18 80.5,-200.77 74.55,-193.93"/>
<polygon fill="#000000" fill-opacity="0.200000" stroke="#000000" stroke-width="2" stroke-opacity="0.200000" points="76.21,-192.64 70.82,-189.29 72.94,-195.28 76.21,-192.64"/>
</g>
<!-- src/pages/profile/ -->
<g id="node9" class="node">
<title>src/pages/profile/</title>
<g id="a_node9"><a xlink:href="src/pages/profile/" xlink:title="profile">
<polygon fill="#ffffcc" stroke="black" points="553.25,-186.5 501.23,-186.5 499.25,-184.53 499.25,-168.75 551.28,-168.75 553.25,-170.72 553.25,-186.5"/>
<polyline fill="none" stroke="black" points="551.28,-184.53 499.25,-184.53"/>
<polyline fill="none" stroke="black" points="551.28,-184.53 551.28,-168.75"/>
<polyline fill="none" stroke="black" points="551.28,-184.53 553.25,-186.5"/>
<text text-anchor="start" x="513.5" y="-173.95" font-family="Helvetica,sans-Serif" font-size="9.00">profile</text>
</a>
</g>
</g>
<!-- src/app&#45;&gt;src/pages/profile/ -->
<g id="edge8" class="edge">
<title>src/app&#45;&gt;src/pages/profile/</title>
<path fill="none" stroke="#000000" stroke-width="2" stroke-opacity="0.200000" d="M322.4,-228.27C369.38,-228.14 463.65,-226.09 493.25,-212.25 501.96,-208.18 509.63,-200.76 515.37,-193.93"/>
<polygon fill="#000000" fill-opacity="0.200000" stroke="#000000" stroke-width="2" stroke-opacity="0.200000" points="516.93,-195.34 518.96,-189.32 513.62,-192.76 516.93,-195.34"/>
</g>
<!-- src/pages/register/ -->
<g id="node10" class="node">
<title>src/pages/register/</title>
<g id="a_node10"><a xlink:href="src/pages/register/" xlink:title="register">
<polygon fill="#ffffcc" stroke="black" points="289.25,-186.5 237.23,-186.5 235.25,-184.53 235.25,-168.75 287.28,-168.75 289.25,-170.72 289.25,-186.5"/>
<polyline fill="none" stroke="black" points="287.28,-184.53 235.25,-184.53"/>
<polyline fill="none" stroke="black" points="287.28,-184.53 287.28,-168.75"/>
<polyline fill="none" stroke="black" points="287.28,-184.53 289.25,-186.5"/>
<text text-anchor="start" x="246.88" y="-173.95" font-family="Helvetica,sans-Serif" font-size="9.00">register</text>
</a>
</g>
</g>
<!-- src/app&#45;&gt;src/pages/register/ -->
<g id="edge9" class="edge">
<title>src/app&#45;&gt;src/pages/register/</title>
<path fill="none" stroke="#000000" stroke-width="2" stroke-opacity="0.200000" d="M289.8,-219.95C285.2,-213.04 278.47,-202.94 272.81,-194.46"/>
<polygon fill="#000000" fill-opacity="0.200000" stroke="#000000" stroke-width="2" stroke-opacity="0.200000" points="274.58,-193.32 269.5,-189.5 271.08,-195.65 274.58,-193.32"/>
</g>
<!-- src/pages/settings/ -->
<g id="node11" class="node">
<title>src/pages/settings/</title>
<g id="a_node11"><a xlink:href="src/pages/settings/" xlink:title="settings">
<polygon fill="#ffffcc" stroke="black" points="355.25,-186.5 303.23,-186.5 301.25,-184.53 301.25,-168.75 353.28,-168.75 355.25,-170.72 355.25,-186.5"/>
<polyline fill="none" stroke="black" points="353.28,-184.53 301.25,-184.53"/>
<polyline fill="none" stroke="black" points="353.28,-184.53 353.28,-168.75"/>
<polyline fill="none" stroke="black" points="353.28,-184.53 355.25,-186.5"/>
<text text-anchor="start" x="312.5" y="-173.95" font-family="Helvetica,sans-Serif" font-size="9.00">settings</text>
</a>
</g>
</g>
<!-- src/app&#45;&gt;src/pages/settings/ -->
<g id="edge10" class="edge">
<title>src/app&#45;&gt;src/pages/settings/</title>
<path fill="none" stroke="#000000" stroke-width="2" stroke-opacity="0.200000" d="M300.7,-219.95C305.31,-213.04 312.04,-202.94 317.7,-194.46"/>
<polygon fill="#000000" fill-opacity="0.200000" stroke="#000000" stroke-width="2" stroke-opacity="0.200000" points="319.43,-195.65 321.01,-189.5 315.93,-193.32 319.43,-195.65"/>
</g>
<!-- src/pages/article/&#45;&gt;src/shared -->
<g id="edge26" class="edge">
<title>src/pages/article/&#45;&gt;src/shared</title>
<path fill="none" stroke="#000000" stroke-width="2" stroke-opacity="0.200000" d="M578.29,-168.28C572.59,-165.32 565.81,-162.33 559.25,-160.75 522.62,-151.94 254.73,-167.95 220.25,-152.75 186.74,-137.98 176.9,-127.23 163.25,-93.25 154.72,-72.01 154.45,-62.88 163.25,-41.75 163.33,-41.57 163.41,-41.39 163.49,-41.21"/>
<polygon fill="#000000" fill-opacity="0.200000" stroke="#000000" stroke-width="2" stroke-opacity="0.200000" points="165.12,-42.53 166.91,-36.43 161.71,-40.09 165.12,-42.53"/>
</g>
<!-- src/entities/article/ -->
<g id="node12" class="node">
<title>src/entities/article/</title>
<g id="a_node12"><a xlink:href="src/entities/article/" xlink:title="article">
<polygon fill="#ffffcc" stroke="black" points="294.25,-67.5 242.23,-67.5 240.25,-65.53 240.25,-49.75 292.28,-49.75 294.25,-51.72 294.25,-67.5"/>
<polyline fill="none" stroke="black" points="292.28,-65.53 240.25,-65.53"/>
<polyline fill="none" stroke="black" points="292.28,-65.53 292.28,-49.75"/>
<polyline fill="none" stroke="black" points="292.28,-65.53 294.25,-67.5"/>
<text text-anchor="start" x="254.88" y="-54.95" font-family="Helvetica,sans-Serif" font-size="9.00">article</text>
</a>
</g>
</g>
<!-- src/pages/article/&#45;&gt;src/entities/article/ -->
<g id="edge27" class="edge">
<title>src/pages/article/&#45;&gt;src/entities/article/</title>
<path fill="none" stroke="#000000" stroke-width="2" stroke-opacity="0.200000" d="M578.29,-168.29C572.59,-165.32 565.8,-162.33 559.25,-160.75 541.64,-156.51 245.91,-165.72 233.25,-152.75 217.27,-136.37 225.57,-122.81 233.25,-101.25 236.95,-90.89 244.45,-81.24 251.47,-73.85"/>
<polygon fill="#000000" fill-opacity="0.200000" stroke="#000000" stroke-width="2" stroke-opacity="0.200000" points="252.71,-75.57 255.51,-69.86 249.76,-72.59 252.71,-75.57"/>
</g>
<!-- src/entities/comment/ -->
<g id="node13" class="node">
<title>src/entities/comment/</title>
<g id="a_node13"><a xlink:href="src/entities/comment/" xlink:title="comment">
<polygon fill="#ffffcc" stroke="black" points="426.25,-67.5 374.23,-67.5 372.25,-65.53 372.25,-49.75 424.28,-49.75 426.25,-51.72 426.25,-67.5"/>
<polyline fill="none" stroke="black" points="424.28,-65.53 372.25,-65.53"/>
<polyline fill="none" stroke="black" points="424.28,-65.53 424.28,-49.75"/>
<polyline fill="none" stroke="black" points="424.28,-65.53 426.25,-67.5"/>
<text text-anchor="start" x="380.5" y="-54.95" font-family="Helvetica,sans-Serif" font-size="9.00">comment</text>
</a>
</g>
</g>
<!-- src/pages/article/&#45;&gt;src/entities/comment/ -->
<g id="edge28" class="edge">
<title>src/pages/article/&#45;&gt;src/entities/comment/</title>
<path fill="none" stroke="#000000" stroke-width="2" stroke-opacity="0.200000" d="M578.29,-168.29C572.59,-165.33 565.8,-162.33 559.25,-160.75 542.45,-156.69 260.32,-165.13 248.25,-152.75 232.28,-136.36 232.63,-117.97 248.25,-101.25 257.23,-91.65 354.32,-98.74 366.25,-93.25 374.98,-89.23 382.65,-81.82 388.39,-74.97"/>
<polygon fill="#000000" fill-opacity="0.200000" stroke="#000000" stroke-width="2" stroke-opacity="0.200000" points="389.96,-76.38 391.97,-70.35 386.64,-73.81 389.96,-76.38"/>
</g>
<!-- src/features/article/ -->
<g id="node16" class="node">
<title>src/features/article/</title>
<g id="a_node16"><a xlink:href="src/features/article/" xlink:title="article">
<polygon fill="#ffffcc" stroke="black" points="379.25,-127 327.23,-127 325.25,-125.03 325.25,-109.25 377.28,-109.25 379.25,-111.22 379.25,-127"/>
<polyline fill="none" stroke="black" points="377.28,-125.03 325.25,-125.03"/>
<polyline fill="none" stroke="black" points="377.28,-125.03 377.28,-109.25"/>
<polyline fill="none" stroke="black" points="377.28,-125.03 379.25,-127"/>
<text text-anchor="start" x="339.88" y="-114.45" font-family="Helvetica,sans-Serif" font-size="9.00">article</text>
</a>
</g>
</g>
<!-- src/pages/article/&#45;&gt;src/features/article/ -->
<g id="edge29" class="edge">
<title>src/pages/article/&#45;&gt;src/features/article/</title>
<path fill="none" stroke="#000000" stroke-width="2" stroke-opacity="0.200000" d="M578.27,-168.36C572.57,-165.4 565.79,-162.4 559.25,-160.75 521.72,-151.28 420.59,-168.55 385.25,-152.75 376.37,-148.78 368.62,-141.24 362.86,-134.3"/>
<polygon fill="#000000" fill-opacity="0.200000" stroke="#000000" stroke-width="2" stroke-opacity="0.200000" points="364.59,-133.11 359.28,-129.61 361.25,-135.66 364.59,-133.11"/>
</g>
<!-- src/features/profile/ -->
<g id="node18" class="node">
<title>src/features/profile/</title>
<g id="a_node18"><a xlink:href="src/features/profile/" xlink:title="profile">
<polygon fill="#ffffcc" stroke="black" points="445.25,-127 393.23,-127 391.25,-125.03 391.25,-109.25 443.28,-109.25 445.25,-111.22 445.25,-127"/>
<polyline fill="none" stroke="black" points="443.28,-125.03 391.25,-125.03"/>
<polyline fill="none" stroke="black" points="443.28,-125.03 443.28,-109.25"/>
<polyline fill="none" stroke="black" points="443.28,-125.03 445.25,-127"/>
<text text-anchor="start" x="405.5" y="-114.45" font-family="Helvetica,sans-Serif" font-size="9.00">profile</text>
</a>
</g>
</g>
<!-- src/pages/article/&#45;&gt;src/features/profile/ -->
<g id="edge30" class="edge">
<title>src/pages/article/&#45;&gt;src/features/profile/</title>
<path fill="none" stroke="#000000" stroke-width="2" stroke-opacity="0.200000" d="M577.92,-168.29C572.28,-165.4 565.64,-162.46 559.25,-160.75 536,-154.54 473.08,-162.88 451.25,-152.75 442.53,-148.71 434.87,-141.29 429.12,-134.45"/>
<polygon fill="#000000" fill-opacity="0.200000" stroke="#000000" stroke-width="2" stroke-opacity="0.200000" points="430.88,-133.29 425.54,-129.83 427.56,-135.86 430.88,-133.29"/>
</g>
<!-- src/widgets/comments&#45;feed/ -->
<g id="node20" class="node">
<title>src/widgets/comments&#45;feed/</title>
<g id="a_node20"><a xlink:href="src/widgets/comments-feed/" xlink:title="comments&#45;feed">
<polygon fill="#ffffcc" stroke="black" points="692.75,-127 615.73,-127 613.75,-125.03 613.75,-109.25 690.78,-109.25 692.75,-111.22 692.75,-127"/>
<polyline fill="none" stroke="black" points="690.78,-125.03 613.75,-125.03"/>
<polyline fill="none" stroke="black" points="690.78,-125.03 690.78,-109.25"/>
<polyline fill="none" stroke="black" points="690.78,-125.03 692.75,-127"/>
<text text-anchor="start" x="621.75" y="-114.45" font-family="Helvetica,sans-Serif" font-size="9.00">comments&#45;feed</text>
</a>
</g>
</g>
<!-- src/pages/article/&#45;&gt;src/widgets/comments&#45;feed/ -->
<g id="edge31" class="edge">
<title>src/pages/article/&#45;&gt;src/widgets/comments&#45;feed/</title>
<path fill="none" stroke="#000000" stroke-width="2" stroke-opacity="0.200000" d="M600.99,-168.39C610.69,-159.25 626.5,-144.34 638.2,-133.32"/>
<polygon fill="#000000" fill-opacity="0.200000" stroke="#000000" stroke-width="2" stroke-opacity="0.200000" points="639.4,-135.07 642.33,-129.42 636.52,-132.01 639.4,-135.07"/>
</g>
<!-- src/pages/editor/&#45;&gt;src/shared -->
<g id="edge32" class="edge">
<title>src/pages/editor/&#45;&gt;src/shared</title>
<path fill="none" stroke="#000000" stroke-width="2" stroke-opacity="0.200000" d="M380.28,-168.34C374.57,-165.39 367.79,-162.38 361.25,-160.75 340.32,-155.52 186.2,-163.07 167.25,-152.75 120.93,-127.52 93.65,-83.98 125.25,-41.75 129.76,-35.73 136.43,-31.9 143.56,-29.48"/>
<polygon fill="#000000" fill-opacity="0.200000" stroke="#000000" stroke-width="2" stroke-opacity="0.200000" points="143.84,-31.57 149.11,-28.01 142.77,-27.51 143.84,-31.57"/>
</g>
<!-- src/pages/editor/&#45;&gt;src/entities/article/ -->
<g id="edge33" class="edge">
<title>src/pages/editor/&#45;&gt;src/entities/article/</title>
<path fill="none" stroke="#000000" stroke-width="2" stroke-opacity="0.200000" d="M380.27,-168.36C374.57,-165.4 367.79,-162.39 361.25,-160.75 341.95,-155.89 196.01,-167.14 182.25,-152.75 166.43,-136.21 167.35,-118.62 182.25,-101.25 197.48,-83.5 213.45,-103.92 234.25,-93.25 242.81,-88.87 250.46,-81.42 256.24,-74.65"/>
<polygon fill="#000000" fill-opacity="0.200000" stroke="#000000" stroke-width="2" stroke-opacity="0.200000" points="257.75,-76.12 259.84,-70.12 254.46,-73.51 257.75,-76.12"/>
</g>
<!-- src/pages/editor/&#45;&gt;src/features/article/ -->
<g id="edge34" class="edge">
<title>src/pages/editor/&#45;&gt;src/features/article/</title>
<path fill="none" stroke="#000000" stroke-width="2" stroke-opacity="0.200000" d="M388.41,-168.63C382.03,-159.89 371.64,-145.67 363.63,-134.71"/>
<polygon fill="#000000" fill-opacity="0.200000" stroke="#000000" stroke-width="2" stroke-opacity="0.200000" points="365.34,-133.48 360.1,-129.87 361.94,-135.95 365.34,-133.48"/>
</g>
<!-- src/pages/home/&#45;&gt;src/shared -->
<g id="edge35" class="edge">
<title>src/pages/home/&#45;&gt;src/shared</title>
<path fill="none" stroke="#000000" stroke-width="2" stroke-opacity="0.200000" d="M446.29,-168.3C440.59,-165.33 433.8,-162.34 427.25,-160.75 411.75,-156.99 151.47,-164.09 140.25,-152.75 122.91,-135.21 125.4,-62.16 139.25,-41.75 140.71,-39.61 142.5,-37.75 144.52,-36.15"/>
<polygon fill="#000000" fill-opacity="0.200000" stroke="#000000" stroke-width="2" stroke-opacity="0.200000" points="145.41,-38.06 149.47,-33.17 143.24,-34.47 145.41,-38.06"/>
</g>
<!-- src/pages/home/&#45;&gt;src/entities/article/ -->
<g id="edge36" class="edge">
<title>src/pages/home/&#45;&gt;src/entities/article/</title>
<path fill="none" stroke="#000000" stroke-width="2" stroke-opacity="0.200000" d="M446.28,-168.32C440.58,-165.36 433.8,-162.36 427.25,-160.75 414.78,-157.68 205.17,-161.99 196.25,-152.75 180.35,-136.29 181.83,-119.02 196.25,-101.25 207.13,-87.85 219.12,-101.54 234.25,-93.25 242.58,-88.69 250.13,-81.36 255.91,-74.7"/>
<polygon fill="#000000" fill-opacity="0.200000" stroke="#000000" stroke-width="2" stroke-opacity="0.200000" points="257.37,-76.24 259.52,-70.25 254.11,-73.59 257.37,-76.24"/>
</g>
<!-- src/entities/tag/ -->
<g id="node15" class="node">
<title>src/entities/tag/</title>
<g id="a_node15"><a xlink:href="src/entities/tag/" xlink:title="tag">
<polygon fill="#ffffcc" stroke="black" points="228.25,-67.5 176.23,-67.5 174.25,-65.53 174.25,-49.75 226.28,-49.75 228.25,-51.72 228.25,-67.5"/>
<polyline fill="none" stroke="black" points="226.28,-65.53 174.25,-65.53"/>
<polyline fill="none" stroke="black" points="226.28,-65.53 226.28,-49.75"/>
<polyline fill="none" stroke="black" points="226.28,-65.53 228.25,-67.5"/>
<text text-anchor="start" x="194.88" y="-54.95" font-family="Helvetica,sans-Serif" font-size="9.00">tag</text>
</a>
</g>
</g>
<!-- src/pages/home/&#45;&gt;src/entities/tag/ -->
<g id="edge37" class="edge">
<title>src/pages/home/&#45;&gt;src/entities/tag/</title>
<path fill="none" stroke="#000000" stroke-width="2" stroke-opacity="0.200000" d="M446.28,-168.31C440.58,-165.35 433.8,-162.35 427.25,-160.75 413.97,-157.49 190.76,-162.57 181.25,-152.75 161.14,-131.97 177.84,-96.12 190.45,-75.48"/>
<polygon fill="#000000" fill-opacity="0.200000" stroke="#000000" stroke-width="2" stroke-opacity="0.200000" points="192.21,-76.63 193.68,-70.45 188.67,-74.36 192.21,-76.63"/>
</g>
<!-- src/pages/home/&#45;&gt;src/features/article/ -->
<g id="edge38" class="edge">
<title>src/pages/home/&#45;&gt;src/features/article/</title>
<path fill="none" stroke="#000000" stroke-width="2" stroke-opacity="0.200000" d="M445.15,-168.34C439.65,-165.6 433.29,-162.74 427.25,-160.75 409.21,-154.8 402.01,-161.72 385.25,-152.75 376.89,-148.27 369.32,-140.94 363.56,-134.27"/>
<polygon fill="#000000" fill-opacity="0.200000" stroke="#000000" stroke-width="2" stroke-opacity="0.200000" points="365.36,-133.16 359.95,-129.81 362.09,-135.8 365.36,-133.16"/>
</g>
<!-- src/widgets/articles&#45;feed/ -->
<g id="node21" class="node">
<title>src/widgets/articles&#45;feed/</title>
<g id="a_node21"><a xlink:href="src/widgets/articles-feed/" xlink:title="articles&#45;feed">
<polygon fill="#ffffcc" stroke="black" points="601.38,-127 537.1,-127 535.13,-125.03 535.13,-109.25 599.41,-109.25 601.38,-111.22 601.38,-127"/>
<polyline fill="none" stroke="black" points="599.41,-125.03 535.13,-125.03"/>
<polyline fill="none" stroke="black" points="599.41,-125.03 599.41,-109.25"/>
<polyline fill="none" stroke="black" points="599.41,-125.03 601.38,-127"/>
<text text-anchor="start" x="543.13" y="-114.45" font-family="Helvetica,sans-Serif" font-size="9.00">articles&#45;feed</text>
</a>
</g>
</g>
<!-- src/pages/home/&#45;&gt;src/widgets/articles&#45;feed/ -->
<g id="edge39" class="edge">
<title>src/pages/home/&#45;&gt;src/widgets/articles&#45;feed/</title>
<path fill="none" stroke="#000000" stroke-width="2" stroke-opacity="0.200000" d="M476.11,-168.28C481.47,-165.66 487.54,-162.89 493.25,-160.75 505.77,-156.06 510.22,-158.57 522.25,-152.75 533,-147.56 543.83,-139.79 552.29,-133.03"/>
<polygon fill="#000000" fill-opacity="0.200000" stroke="#000000" stroke-width="2" stroke-opacity="0.200000" points="553.43,-134.81 556.71,-129.37 550.75,-131.58 553.43,-134.81"/>
</g>
<!-- src/pages/layouts/&#45;&gt;src/shared -->
<g id="edge40" class="edge">
<title>src/pages/layouts/&#45;&gt;src/shared</title>
<path fill="none" stroke="#000000" stroke-width="2" stroke-opacity="0.200000" d="M115.16,-168.33C109.65,-165.58 103.3,-162.73 97.25,-160.75 78.78,-154.71 66.68,-167.7 54.25,-152.75 38.49,-133.78 37.95,-60.26 54.25,-41.75 65.65,-28.81 110.43,-25.79 143.14,-25.37"/>
<polygon fill="#000000" fill-opacity="0.200000" stroke="#000000" stroke-width="2" stroke-opacity="0.200000" points="143,-27.48 148.99,-25.34 142.97,-23.28 143,-27.48"/>
</g>
<!-- src/pages/login/&#45;&gt;src/shared -->
<g id="edge41" class="edge">
<title>src/pages/login/&#45;&gt;src/shared</title>
<path fill="none" stroke="#000000" stroke-width="2" stroke-opacity="0.200000" d="M181.91,-168.33C176.27,-165.44 169.63,-162.5 163.25,-160.75 143.25,-155.28 84.28,-168.03 70.25,-152.75 53.58,-134.58 54.12,-60.41 70.25,-41.75 79.59,-30.95 115.13,-27.35 143.12,-26.22"/>
<polygon fill="#000000" fill-opacity="0.200000" stroke="#000000" stroke-width="2" stroke-opacity="0.200000" points="142.95,-28.33 148.87,-26.03 142.81,-24.13 142.95,-28.33"/>
</g>
<!-- src/features/session/ -->
<g id="node19" class="node">
<title>src/features/session/</title>
<g id="a_node19"><a xlink:href="src/features/session/" xlink:title="session">
<polygon fill="#ffffcc" stroke="black" points="313.25,-127 261.23,-127 259.25,-125.03 259.25,-109.25 311.28,-109.25 313.25,-111.22 313.25,-127"/>
<polyline fill="none" stroke="black" points="311.28,-125.03 259.25,-125.03"/>
<polyline fill="none" stroke="black" points="311.28,-125.03 311.28,-109.25"/>
<polyline fill="none" stroke="black" points="311.28,-125.03 313.25,-127"/>
<text text-anchor="start" x="270.5" y="-114.45" font-family="Helvetica,sans-Serif" font-size="9.00">session</text>
</a>
</g>
</g>
<!-- src/pages/login/&#45;&gt;src/features/session/ -->
<g id="edge42" class="edge">
<title>src/pages/login/&#45;&gt;src/features/session/</title>
<path fill="none" stroke="#000000" stroke-width="2" stroke-opacity="0.200000" d="M212.15,-168.38C217.51,-165.77 223.57,-162.98 229.25,-160.75 240.51,-156.34 245.02,-159.2 255.25,-152.75 262.79,-148 269.67,-140.97 275.02,-134.55"/>
<polygon fill="#000000" fill-opacity="0.200000" stroke="#000000" stroke-width="2" stroke-opacity="0.200000" points="276.64,-135.89 278.69,-129.87 273.34,-133.3 276.64,-135.89"/>
</g>
<!-- src/pages/page&#45;404/&#45;&gt;src/shared -->
<g id="edge43" class="edge">
<title>src/pages/page&#45;404/&#45;&gt;src/shared</title>
<path fill="none" stroke="#000000" stroke-width="2" stroke-opacity="0.200000" d="M51.67,-168.45C46.87,-164.35 41.83,-158.94 39.25,-152.75 29.78,-129.97 22.82,-60.15 39.25,-41.75 46.09,-34.1 104.12,-29.66 143.29,-27.5"/>
<polygon fill="#000000" fill-opacity="0.200000" stroke="#000000" stroke-width="2" stroke-opacity="0.200000" points="142.92,-29.63 148.8,-27.21 142.7,-25.43 142.92,-29.63"/>
</g>
<!-- src/pages/profile/&#45;&gt;src/shared -->
<g id="edge44" class="edge">
<title>src/pages/profile/&#45;&gt;src/shared</title>
<path fill="none" stroke="#000000" stroke-width="2" stroke-opacity="0.200000" d="M512.29,-168.28C506.59,-165.32 499.81,-162.33 493.25,-160.75 474.94,-156.35 167.53,-166.12 154.25,-152.75 136.87,-135.25 141.18,-63.26 153.25,-41.75 153.52,-41.27 153.81,-40.81 154.11,-40.36"/>
<polygon fill="#000000" fill-opacity="0.200000" stroke="#000000" stroke-width="2" stroke-opacity="0.200000" points="155.48,-41.97 158.23,-36.24 152.5,-39 155.48,-41.97"/>
</g>
<!-- src/pages/profile/&#45;&gt;src/entities/article/ -->
<g id="edge45" class="edge">
<title>src/pages/profile/&#45;&gt;src/entities/article/</title>
<path fill="none" stroke="#000000" stroke-width="2" stroke-opacity="0.200000" d="M512.29,-168.3C506.59,-165.34 499.8,-162.34 493.25,-160.75 477.97,-157.04 221.22,-164.03 210.25,-152.75 194.3,-136.34 196.87,-119.82 210.25,-101.25 216.83,-92.13 224.72,-99.21 234.25,-93.25 242.2,-88.29 249.64,-81.03 255.44,-74.53"/>
<polygon fill="#000000" fill-opacity="0.200000" stroke="#000000" stroke-width="2" stroke-opacity="0.200000" points="256.81,-76.16 259.08,-70.23 253.6,-73.45 256.81,-76.16"/>
</g>
<!-- src/entities/profile/ -->
<g id="node14" class="node">
<title>src/entities/profile/</title>
<g id="a_node14"><a xlink:href="src/entities/profile/" xlink:title="profile">
<polygon fill="#ffffcc" stroke="black" points="360.25,-67.5 308.23,-67.5 306.25,-65.53 306.25,-49.75 358.28,-49.75 360.25,-51.72 360.25,-67.5"/>
<polyline fill="none" stroke="black" points="358.28,-65.53 306.25,-65.53"/>
<polyline fill="none" stroke="black" points="358.28,-65.53 358.28,-49.75"/>
<polyline fill="none" stroke="black" points="358.28,-65.53 360.25,-67.5"/>
<text text-anchor="start" x="320.5" y="-54.95" font-family="Helvetica,sans-Serif" font-size="9.00">profile</text>
</a>
</g>
</g>
<!-- src/pages/profile/&#45;&gt;src/entities/profile/ -->
<g id="edge46" class="edge">
<title>src/pages/profile/&#45;&gt;src/entities/profile/</title>
<path fill="none" stroke="#000000" stroke-width="2" stroke-opacity="0.200000" d="M512.28,-168.31C506.58,-165.35 499.8,-162.35 493.25,-160.75 479.21,-157.32 243.31,-163.12 233.25,-152.75 217.32,-136.32 218.06,-118.37 233.25,-101.25 243.21,-90.04 286.8,-99.86 300.25,-93.25 308.88,-89.01 316.54,-81.58 322.3,-74.78"/>
<polygon fill="#000000" fill-opacity="0.200000" stroke="#000000" stroke-width="2" stroke-opacity="0.200000" points="323.84,-76.22 325.9,-70.21 320.54,-73.63 323.84,-76.22"/>
</g>
<!-- src/pages/profile/&#45;&gt;src/features/article/ -->
<g id="edge47" class="edge">
<title>src/pages/profile/&#45;&gt;src/features/article/</title>
<path fill="none" stroke="#000000" stroke-width="2" stroke-opacity="0.200000" d="M511.92,-168.29C506.28,-165.4 499.64,-162.46 493.25,-160.75 470,-154.54 407.08,-162.88 385.25,-152.75 376.53,-148.71 368.87,-141.29 363.12,-134.45"/>
<polygon fill="#000000" fill-opacity="0.200000" stroke="#000000" stroke-width="2" stroke-opacity="0.200000" points="364.88,-133.29 359.54,-129.83 361.56,-135.86 364.88,-133.29"/>
</g>
<!-- src/pages/profile/&#45;&gt;src/features/profile/ -->
<g id="edge49" class="edge">
<title>src/pages/profile/&#45;&gt;src/features/profile/</title>
<path fill="none" stroke="#000000" stroke-width="2" stroke-opacity="0.200000" d="M511.15,-168.34C505.65,-165.6 499.29,-162.74 493.25,-160.75 475.21,-154.8 468.01,-161.72 451.25,-152.75 442.89,-148.27 435.32,-140.94 429.56,-134.27"/>
<polygon fill="#000000" fill-opacity="0.200000" stroke="#000000" stroke-width="2" stroke-opacity="0.200000" points="431.36,-133.16 425.95,-129.81 428.09,-135.8 431.36,-133.16"/>
</g>
<!-- src/pages/profile/&#45;&gt;src/widgets/articles&#45;feed/ -->
<g id="edge48" class="edge">
<title>src/pages/profile/&#45;&gt;src/widgets/articles&#45;feed/</title>
<path fill="none" stroke="#000000" stroke-width="2" stroke-opacity="0.200000" d="M532.09,-168.63C538.48,-159.89 548.86,-145.67 556.87,-134.71"/>
<polygon fill="#000000" fill-opacity="0.200000" stroke="#000000" stroke-width="2" stroke-opacity="0.200000" points="558.56,-135.95 560.41,-129.87 555.17,-133.48 558.56,-135.95"/>
</g>
<!-- src/pages/register/&#45;&gt;src/shared -->
<g id="edge50" class="edge">
<title>src/pages/register/&#45;&gt;src/shared</title>
<path fill="none" stroke="#000000" stroke-width="2" stroke-opacity="0.200000" d="M248.26,-168.39C242.56,-165.44 235.78,-162.43 229.25,-160.75 213.63,-156.73 95.34,-164.47 84.25,-152.75 67.3,-134.83 68.31,-60.57 84.25,-41.75 91.82,-32.81 119.56,-28.9 143.12,-27.19"/>
<polygon fill="#000000" fill-opacity="0.200000" stroke="#000000" stroke-width="2" stroke-opacity="0.200000" points="143.02,-29.3 148.88,-26.83 142.76,-25.11 143.02,-29.3"/>
</g>
<!-- src/pages/register/&#45;&gt;src/features/session/ -->
<g id="edge51" class="edge">
<title>src/pages/register/&#45;&gt;src/features/session/</title>
<path fill="none" stroke="#000000" stroke-width="2" stroke-opacity="0.200000" d="M265.59,-168.63C269.13,-160.14 274.83,-146.49 279.35,-135.67"/>
<polygon fill="#000000" fill-opacity="0.200000" stroke="#000000" stroke-width="2" stroke-opacity="0.200000" points="281.25,-136.56 281.62,-130.22 277.37,-134.95 281.25,-136.56"/>
</g>
<!-- src/pages/settings/&#45;&gt;src/shared -->
<g id="edge52" class="edge">
<title>src/pages/settings/&#45;&gt;src/shared</title>
<path fill="none" stroke="#000000" stroke-width="2" stroke-opacity="0.200000" d="M314.28,-168.34C308.57,-165.38 301.79,-162.38 295.25,-160.75 284.63,-158.1 105.84,-160.65 98.25,-152.75 81.17,-134.96 82.58,-60.8 98.25,-41.75 104.07,-34.68 124.26,-30.71 143.02,-28.51"/>
<polygon fill="#000000" fill-opacity="0.200000" stroke="#000000" stroke-width="2" stroke-opacity="0.200000" points="143.01,-30.63 148.76,-27.91 142.57,-26.45 143.01,-30.63"/>
</g>
<!-- src/pages/settings/&#45;&gt;src/features/session/ -->
<g id="edge53" class="edge">
<title>src/pages/settings/&#45;&gt;src/features/session/</title>
<path fill="none" stroke="#000000" stroke-width="2" stroke-opacity="0.200000" d="M322.41,-168.63C316.03,-159.89 305.64,-145.67 297.63,-134.71"/>
<polygon fill="#000000" fill-opacity="0.200000" stroke="#000000" stroke-width="2" stroke-opacity="0.200000" points="299.34,-133.48 294.1,-129.87 295.94,-135.95 299.34,-133.48"/>
</g>
<!-- src/entities/article/&#45;&gt;src/shared -->
<g id="edge11" class="edge">
<title>src/entities/article/&#45;&gt;src/shared</title>
<path fill="none" stroke="#000000" stroke-width="2" stroke-opacity="0.200000" d="M251.38,-49.32C246.02,-46.7 239.96,-43.93 234.25,-41.75 228.19,-39.43 221.64,-37.27 215.25,-35.32"/>
<polygon fill="#000000" fill-opacity="0.200000" stroke="#000000" stroke-width="2" stroke-opacity="0.200000" points="215.94,-33.34 209.59,-33.67 214.76,-37.37 215.94,-33.34"/>
</g>
<!-- src/entities/comment/&#45;&gt;src/shared -->
<g id="edge12" class="edge">
<title>src/entities/comment/&#45;&gt;src/shared</title>
<path fill="none" stroke="#000000" stroke-width="2" stroke-opacity="0.200000" d="M384.91,-49.32C379.27,-46.44 372.63,-43.49 366.25,-41.75 315.18,-27.81 253.62,-25.17 215.44,-25.1"/>
<polygon fill="#000000" fill-opacity="0.200000" stroke="#000000" stroke-width="2" stroke-opacity="0.200000" points="215.75,-23 209.76,-25.12 215.77,-27.2 215.75,-23"/>
</g>
<!-- src/entities/profile/&#45;&gt;src/shared -->
<g id="edge13" class="edge">
<title>src/entities/profile/&#45;&gt;src/shared</title>
<path fill="none" stroke="#000000" stroke-width="2" stroke-opacity="0.200000" d="M318.54,-49.31C312.97,-46.5 306.47,-43.6 300.25,-41.75 272.52,-33.49 239.95,-29.53 215.59,-27.63"/>
<polygon fill="#000000" fill-opacity="0.200000" stroke="#000000" stroke-width="2" stroke-opacity="0.200000" points="215.83,-25.54 209.7,-27.21 215.54,-29.73 215.83,-25.54"/>
</g>
<!-- src/entities/tag/&#45;&gt;src/shared -->
<g id="edge14" class="edge">
<title>src/entities/tag/&#45;&gt;src/shared</title>
<path fill="none" stroke="#000000" stroke-width="2" stroke-opacity="0.200000" d="M195.47,-49.28C193.74,-46.78 191.79,-43.96 189.85,-41.16"/>
<polygon fill="#000000" fill-opacity="0.200000" stroke="#000000" stroke-width="2" stroke-opacity="0.200000" points="191.79,-40.28 186.64,-36.54 188.33,-42.67 191.79,-40.28"/>
</g>
<!-- src/features/article/&#45;&gt;src/shared -->
<g id="edge15" class="edge">
<title>src/features/article/&#45;&gt;src/shared</title>
<path fill="none" stroke="#000000" stroke-width="2" stroke-opacity="0.200000" d="M366.96,-108.81C372.54,-106 379.04,-103.1 385.25,-101.25 398.36,-97.35 437.24,-103.53 446.25,-93.25 461.35,-76.04 461.95,-58.41 446.25,-41.75 430.75,-25.3 284.3,-24.69 215.12,-25.34"/>
<polygon fill="#000000" fill-opacity="0.200000" stroke="#000000" stroke-width="2" stroke-opacity="0.200000" points="215.3,-23.24 209.32,-25.4 215.34,-27.44 215.3,-23.24"/>
</g>
<!-- src/features/article/&#45;&gt;src/entities/article/ -->
<g id="edge16" class="edge">
<title>src/features/article/&#45;&gt;src/entities/article/</title>
<path fill="none" stroke="#000000" stroke-width="2" stroke-opacity="0.200000" d="M335.54,-108.89C330.35,-106.38 324.59,-103.65 319.25,-101.25 310.9,-97.49 307.83,-98.4 300.25,-93.25 292.5,-87.98 285.08,-80.7 279.24,-74.25"/>
<polygon fill="#000000" fill-opacity="0.200000" stroke="#000000" stroke-width="2" stroke-opacity="0.200000" points="281.09,-73.18 275.57,-70.02 277.91,-75.93 281.09,-73.18"/>
</g>
<!-- src/features/article/&#45;&gt;src/entities/comment/ -->
<g id="edge17" class="edge">
<title>src/features/article/&#45;&gt;src/entities/comment/</title>
<path fill="none" stroke="#000000" stroke-width="2" stroke-opacity="0.200000" d="M358.79,-109.13C366,-100.3 377.78,-85.89 386.78,-74.89"/>
<polygon fill="#000000" fill-opacity="0.200000" stroke="#000000" stroke-width="2" stroke-opacity="0.200000" points="388.38,-76.24 390.55,-70.27 385.13,-73.58 388.38,-76.24"/>
</g>
<!-- src/features/article/&#45;&gt;src/entities/tag/ -->
<g id="edge18" class="edge">
<title>src/features/article/&#45;&gt;src/entities/tag/</title>
<path fill="none" stroke="#000000" stroke-width="2" stroke-opacity="0.200000" d="M337.9,-108.85C332.26,-105.97 325.62,-103.02 319.25,-101.25 282.69,-91.09 268.51,-109.56 234.25,-93.25 225.58,-89.12 217.91,-81.7 212.16,-74.87"/>
<polygon fill="#000000" fill-opacity="0.200000" stroke="#000000" stroke-width="2" stroke-opacity="0.200000" points="213.92,-73.72 208.57,-70.28 210.61,-76.3 213.92,-73.72"/>
</g>
<!-- src/features/comment/ -->
<g id="node17" class="node">
<title>src/features/comment/</title>
<g id="a_node17"><a xlink:href="src/features/comment/" xlink:title="comment">
<polygon fill="#ffffcc" stroke="black" points="511.25,-127 459.23,-127 457.25,-125.03 457.25,-109.25 509.28,-109.25 511.25,-111.22 511.25,-127"/>
<polyline fill="none" stroke="black" points="509.28,-125.03 457.25,-125.03"/>
<polyline fill="none" stroke="black" points="509.28,-125.03 509.28,-109.25"/>
<polyline fill="none" stroke="black" points="509.28,-125.03 511.25,-127"/>
<text text-anchor="start" x="465.5" y="-114.45" font-family="Helvetica,sans-Serif" font-size="9.00">comment</text>
</a>
</g>
</g>
<!-- src/features/comment/&#45;&gt;src/shared -->
<g id="edge19" class="edge">
<title>src/features/comment/&#45;&gt;src/shared</title>
<path fill="none" stroke="#000000" stroke-width="2" stroke-opacity="0.200000" d="M484.89,-108.92C485.6,-93.07 484.62,-58.34 464.25,-41.75 445.37,-26.37 287.42,-25.25 215.12,-25.56"/>
<polygon fill="#000000" fill-opacity="0.200000" stroke="#000000" stroke-width="2" stroke-opacity="0.200000" points="215.35,-23.46 209.36,-25.59 215.37,-27.66 215.35,-23.46"/>
</g>
<!-- src/features/comment/&#45;&gt;src/entities/comment/ -->
<g id="edge20" class="edge">
<title>src/features/comment/&#45;&gt;src/entities/comment/</title>
<path fill="none" stroke="#000000" stroke-width="2" stroke-opacity="0.200000" d="M467.59,-108.77C462.4,-106.26 456.63,-103.56 451.25,-101.25 442.08,-97.3 438.52,-98.85 430.25,-93.25 422.88,-88.26 416.02,-81.19 410.64,-74.82"/>
<polygon fill="#000000" fill-opacity="0.200000" stroke="#000000" stroke-width="2" stroke-opacity="0.200000" points="412.33,-73.57 406.94,-70.2 409.05,-76.19 412.33,-73.57"/>
</g>
<!-- src/features/profile/&#45;&gt;src/shared -->
<g id="edge21" class="edge">
<title>src/features/profile/&#45;&gt;src/shared</title>
<path fill="none" stroke="#000000" stroke-width="2" stroke-opacity="0.200000" d="M438.65,-108.81C445.15,-105.07 451.6,-99.96 455.25,-93.25 466.2,-73.15 470.97,-58.39 455.25,-41.75 439.14,-24.68 286.47,-24.43 215.37,-25.26"/>
<polygon fill="#000000" fill-opacity="0.200000" stroke="#000000" stroke-width="2" stroke-opacity="0.200000" points="215.71,-23.15 209.74,-25.33 215.76,-27.35 215.71,-23.15"/>
</g>
<!-- src/features/profile/&#45;&gt;src/entities/article/ -->
<g id="edge22" class="edge">
<title>src/features/profile/&#45;&gt;src/entities/article/</title>
<path fill="none" stroke="#000000" stroke-width="2" stroke-opacity="0.200000" d="M403.9,-108.85C398.26,-105.97 391.62,-103.02 385.25,-101.25 348.69,-91.09 334.51,-109.56 300.25,-93.25 291.58,-89.12 283.91,-81.7 278.16,-74.87"/>
<polygon fill="#000000" fill-opacity="0.200000" stroke="#000000" stroke-width="2" stroke-opacity="0.200000" points="279.92,-73.72 274.57,-70.28 276.61,-76.3 279.92,-73.72"/>
</g>
<!-- src/features/profile/&#45;&gt;src/entities/profile/ -->
<g id="edge23" class="edge">
<title>src/features/profile/&#45;&gt;src/entities/profile/</title>
<path fill="none" stroke="#000000" stroke-width="2" stroke-opacity="0.200000" d="M401.54,-108.89C396.35,-106.38 390.59,-103.65 385.25,-101.25 376.9,-97.49 373.83,-98.4 366.25,-93.25 358.5,-87.98 351.08,-80.7 345.24,-74.25"/>
<polygon fill="#000000" fill-opacity="0.200000" stroke="#000000" stroke-width="2" stroke-opacity="0.200000" points="347.09,-73.18 341.57,-70.02 343.91,-75.93 347.09,-73.18"/>
</g>
<!-- src/features/session/&#45;&gt;src/shared -->
<g id="edge24" class="edge">
<title>src/features/session/&#45;&gt;src/shared</title>
<path fill="none" stroke="#000000" stroke-width="2" stroke-opacity="0.200000" d="M300.58,-108.77C306.22,-105.87 312.86,-102.94 319.25,-101.25 331.96,-97.9 428.28,-102.85 437.25,-93.25 452.88,-76.53 452.93,-58.42 437.25,-41.75 422.39,-25.94 282.73,-24.96 215.32,-25.42"/>
<polygon fill="#000000" fill-opacity="0.200000" stroke="#000000" stroke-width="2" stroke-opacity="0.200000" points="215.32,-23.32 209.34,-25.47 215.35,-27.52 215.32,-23.32"/>
</g>
<!-- src/features/session/&#45;&gt;src/entities/profile/ -->
<g id="edge25" class="edge">
<title>src/features/session/&#45;&gt;src/entities/profile/</title>
<path fill="none" stroke="#000000" stroke-width="2" stroke-opacity="0.200000" d="M292.79,-109.13C300,-100.3 311.78,-85.89 320.78,-74.89"/>
<polygon fill="#000000" fill-opacity="0.200000" stroke="#000000" stroke-width="2" stroke-opacity="0.200000" points="322.38,-76.24 324.55,-70.27 319.13,-73.58 322.38,-76.24"/>
</g>
<!-- src/widgets/comments&#45;feed/&#45;&gt;src/shared -->
<g id="edge58" class="edge">
<title>src/widgets/comments&#45;feed/&#45;&gt;src/shared</title>
<path fill="none" stroke="#000000" stroke-width="2" stroke-opacity="0.200000" d="M642.3,-108.77C620.02,-92.33 567.2,-56.13 516.25,-41.75 460.59,-26.04 290.28,-25.12 215.31,-25.52"/>
<polygon fill="#000000" fill-opacity="0.200000" stroke="#000000" stroke-width="2" stroke-opacity="0.200000" points="215.67,-23.42 209.69,-25.56 215.7,-27.62 215.67,-23.42"/>
</g>
<!-- src/widgets/comments&#45;feed/&#45;&gt;src/entities/comment/ -->
<g id="edge56" class="edge">
<title>src/widgets/comments&#45;feed/&#45;&gt;src/entities/comment/</title>
<path fill="none" stroke="#000000" stroke-width="2" stroke-opacity="0.200000" d="M633.44,-108.89C625.45,-105.94 616.05,-102.93 607.25,-101.25 568.58,-93.86 465.95,-109.86 430.25,-93.25 421.69,-89.26 414.39,-81.72 409.03,-74.79"/>
<polygon fill="#000000" fill-opacity="0.200000" stroke="#000000" stroke-width="2" stroke-opacity="0.200000" points="410.94,-73.85 405.76,-70.17 407.51,-76.28 410.94,-73.85"/>
</g>
<!-- src/widgets/comments&#45;feed/&#45;&gt;src/features/comment/ -->
<g id="edge57" class="edge">
<title>src/widgets/comments&#45;feed/&#45;&gt;src/features/comment/</title>
<path fill="none" stroke="#000000" stroke-width="2" stroke-opacity="0.200000" d="M644.77,-127.43C635.28,-137.06 618.9,-151.41 601.25,-156.75 586.15,-161.32 545.35,-161.32 530.25,-156.75 517.18,-152.79 505.44,-142.77 497.1,-133.93"/>
<polygon fill="#000000" fill-opacity="0.200000" stroke="#000000" stroke-width="2" stroke-opacity="0.200000" points="498.72,-132.6 493.17,-129.5 495.58,-135.38 498.72,-132.6"/>
</g>
<!-- src/widgets/articles&#45;feed/&#45;&gt;src/shared -->
<g id="edge54" class="edge">
<title>src/widgets/articles&#45;feed/&#45;&gt;src/shared</title>
<path fill="none" stroke="#000000" stroke-width="2" stroke-opacity="0.200000" d="M561.66,-108.81C548.1,-92.42 515.23,-56.31 478.25,-41.75 454.37,-32.35 289.42,-28 215.25,-26.51"/>
<polygon fill="#000000" fill-opacity="0.200000" stroke="#000000" stroke-width="2" stroke-opacity="0.200000" points="215.73,-24.42 209.69,-26.4 215.65,-28.62 215.73,-24.42"/>
</g>
<!-- src/widgets/articles&#45;feed/&#45;&gt;src/features/article/ -->
<g id="edge55" class="edge">
<title>src/widgets/articles&#45;feed/&#45;&gt;src/features/article/</title>
<path fill="none" stroke="#000000" stroke-width="2" stroke-opacity="0.200000" d="M559.77,-127.43C550.28,-137.06 533.9,-151.41 516.25,-156.75 502.96,-160.77 404.55,-160.77 391.25,-156.75 379.54,-153.2 369.77,-143.5 362.93,-134.71"/>
<polygon fill="#000000" fill-opacity="0.200000" stroke="#000000" stroke-width="2" stroke-opacity="0.200000" points="364.67,-133.52 359.47,-129.85 361.25,-135.96 364.67,-133.52"/>
</g>
</g>
</svg>
